<?xml version="1.0" encoding="UTF-8"?>
<!DOCTYPE svg PUBLIC "-//W3C//DTD SVG 1.1//EN" "http://www.w3.org/Graphics/SVG/1.1/DTD/svg11.dtd">
<svg xmlns="http://www.w3.org/2000/svg" version="1.1" width="147px" height="35px" style="shape-rendering:geometricPrecision; text-rendering:geometricPrecision; image-rendering:optimizeQuality; fill-rule:evenodd; clip-rule:evenodd" xmlns:xlink="http://www.w3.org/1999/xlink">
<g><path style="opacity:0.26" fill="#181c1d" d="M 19.5,-0.5 C 20.8333,-0.5 22.1667,-0.5 23.5,-0.5C 23.1849,2.21076 23.8516,4.54409 25.5,6.5C 23.1667,6.5 20.8333,6.5 18.5,6.5C 19.3686,4.28298 19.702,1.94965 19.5,-0.5 Z"/></g>
<g><path style="opacity:1" fill="#4eb5d3" d="M 8.5,8.5 C 6.6208,9.34141 4.6208,9.67474 2.5,9.5C 1.65859,7.6208 1.32526,5.6208 1.5,3.5C 3.28841,2.37753 5.28841,2.21086 7.5,3C 9.55323,4.67787 9.88657,6.5112 8.5,8.5 Z"/></g>
<g><path style="opacity:0.776" fill="#28241b" d="M 108.5,14.5 C 108.5,17.1667 108.5,19.8333 108.5,22.5C 106.908,21.3984 106.075,22.065 106,24.5C 101.47,30.1706 95.637,32.004 88.5,30C 84.0445,27.7294 81.3778,24.2294 80.5,19.5C 80.5,18.1667 80.5,16.8333 80.5,15.5C 82.2162,8.62811 86.7162,4.62811 94,3.5C 100.733,4.74163 105.567,8.4083 108.5,14.5 Z"/></g>
<g><path style="opacity:0.627" fill="#305863" d="M 1.5,3.5 C 1.32526,5.6208 1.65859,7.6208 2.5,9.5C 1.30652,9.02959 0.639851,8.02959 0.5,6.5C 0.519537,5.27388 0.852871,4.27388 1.5,3.5 Z"/></g>
<g><path style="opacity:1" fill="#50b9d7" d="M 18.5,6.5 C 20.8333,6.5 23.1667,6.5 25.5,6.5C 32.7896,8.39563 33.1229,11.0623 26.5,14.5C 22.0394,11.3201 19.0394,12.3201 17.5,17.5C 19.5013,21.9694 22.5013,22.6361 26.5,19.5C 27.8549,20.1882 28.8549,21.1882 29.5,22.5C 29.8333,23.1667 30.1667,23.8333 30.5,24.5C 29.5994,26.7271 27.9328,27.7271 25.5,27.5C 22.8333,27.5 20.1667,27.5 17.5,27.5C 13.9452,26.9464 11.6118,24.9464 10.5,21.5C 9.16667,18.5 9.16667,15.5 10.5,12.5C 11.7438,8.58807 14.4105,6.58807 18.5,6.5 Z"/></g>
<g><path style="opacity:1" fill="#e20f43" d="M 78.5,10.5 C 79.3597,14.4338 79.693,18.4338 79.5,22.5C 78.3272,24.5041 76.6605,26.0041 74.5,27C 68.8431,27.4994 63.1764,27.6661 57.5,27.5C 57.5,20.5 57.5,13.5 57.5,6.5C 63.1764,6.33391 68.8431,6.50058 74.5,7C 76.3237,7.65999 77.657,8.82665 78.5,10.5 Z M 66.5,12.5 C 68.2161,12.6287 69.8828,12.962 71.5,13.5C 72.9835,16.4109 72.6502,19.0775 70.5,21.5C 69.1667,21.5 67.8333,21.5 66.5,21.5C 66.5,18.5 66.5,15.5 66.5,12.5 Z"/></g>
<g><path style="opacity:1" fill="#b6deeb" d="M 101.5,26.5 C 100.538,24.0144 99.7051,24.0144 99,26.5C 98.6012,26.2716 98.4346,25.9382 98.5,25.5C 94.7194,23.3495 95.3861,22.3495 100.5,22.5C 100.802,19.9407 100.468,17.6074 99.5,15.5C 99.5386,14.2438 99.0386,13.2438 98,12.5C 95.5582,16.4621 93.2248,16.4621 91,12.5C 90.2828,13.0442 89.7828,13.7109 89.5,14.5C 88.4309,17.408 88.2642,20.408 89,23.5C 90.4936,22.2528 91.9936,22.2528 93.5,23.5C 89.6833,25.2671 90.0166,26.6004 94.5,27.5C 95.1835,27.1373 95.8501,26.8039 96.5,26.5C 97.1667,26.8333 97.8333,27.1667 98.5,27.5C 96.2046,29.385 93.538,29.885 90.5,29C 83.9845,25.7911 81.4845,20.6245 83,13.5C 88.1806,4.57052 94.8473,3.23719 103,9.5C 106.684,15.6654 106.184,21.3321 101.5,26.5 Z"/></g>
<g><path style="opacity:0.377" fill="#1f3f48" d="M 8.5,8.5 C 8.5,9.5 8.5,10.5 8.5,11.5C 6.16667,11.5 3.83333,11.5 1.5,11.5C 1.83333,10.8333 2.16667,10.1667 2.5,9.5C 4.6208,9.67474 6.6208,9.34141 8.5,8.5 Z"/></g>
<g><path style="opacity:0.729" fill="#85152f" d="M 140.5,11.5 C 137.098,11.3424 133.764,11.6758 130.5,12.5C 130.611,11.8826 130.944,11.3826 131.5,11C 134.696,10.1955 137.696,10.3622 140.5,11.5 Z"/></g>
<g><path style="opacity:0.999" fill="#4fb9d8" d="M 1.5,11.5 C 3.83333,11.5 6.16667,11.5 8.5,11.5C 8.5,12.1667 8.5,12.8333 8.5,13.5C 8.5,16.5 8.5,19.5 8.5,22.5C 8.5,24.1667 8.5,25.8333 8.5,27.5C 5.8806,27.7683 3.3806,27.435 1,26.5C 0.183676,21.3158 0.350343,16.3158 1.5,11.5 Z"/></g>
<g><path style="opacity:1" fill="#52bedd" d="M 47.5,14.5 C 48.1495,16.4352 48.4828,18.4352 48.5,20.5C 44.774,20.1774 41.1073,20.5108 37.5,21.5C 37.9569,22.2975 38.6236,22.6309 39.5,22.5C 40.5,22.5 41.5,22.5 42.5,22.5C 43.5,22.5 44.5,22.5 45.5,22.5C 47.5822,23.5849 47.9156,25.0849 46.5,27C 42.8749,28.747 39.2083,28.9137 35.5,27.5C 34.7377,25.7376 33.4044,24.7376 31.5,24.5C 31.3227,20.7657 31.6561,17.0991 32.5,13.5C 34.3318,11.1058 36.8318,10.1058 40,10.5C 43.7056,9.93106 46.2056,11.2644 47.5,14.5 Z"/></g>
<g><path style="opacity:0.682" fill="#961637" d="M 65.5,12.5 C 66.0968,11.8614 66.9302,11.528 68,11.5C 69.6991,11.3866 70.8658,12.0532 71.5,13.5C 69.8828,12.962 68.2161,12.6287 66.5,12.5C 66.1667,12.5 65.8333,12.5 65.5,12.5 Z"/></g>
<g><path style="opacity:1" fill="#e70b45" d="M 130.5,12.5 C 133.764,11.6758 137.098,11.3424 140.5,11.5C 142.833,11.8333 144.167,13.1667 144.5,15.5C 144.5,17.1667 144.5,18.8333 144.5,20.5C 141.102,20.1796 137.768,20.513 134.5,21.5C 134.624,22.1067 134.957,22.44 135.5,22.5C 136.5,22.5 137.5,22.5 138.5,22.5C 139.5,22.5 140.5,22.5 141.5,22.5C 145.667,25.021 145.333,26.8543 140.5,28C 135.656,29.253 131.656,28.0863 128.5,24.5C 128.013,23.5266 127.513,22.5266 127,21.5C 126.505,23.4727 126.338,25.4727 126.5,27.5C 126.649,28.552 126.483,29.552 126,30.5C 124.333,31.7332 122.833,33.0665 121.5,34.5C 118.5,34.5 115.5,34.5 112.5,34.5C 111.019,33.5788 109.686,32.4121 108.5,31C 108.808,29.5405 109.475,28.3739 110.5,27.5C 111.167,27.5 111.833,27.5 112.5,27.5C 113.209,28.404 114.209,28.7373 115.5,28.5C 115.833,28.5 116.167,28.5 116.5,28.5C 117.492,28.6716 118.158,28.3382 118.5,27.5C 119.557,26.794 119.224,26.4607 117.5,26.5C 116.167,26.5 114.833,26.5 113.5,26.5C 113.167,26.5 112.833,26.5 112.5,26.5C 112.027,25.0937 111.027,24.427 109.5,24.5C 108.662,24.1583 108.328,23.4916 108.5,22.5C 108.5,19.8333 108.5,17.1667 108.5,14.5C 108.833,13.5 109.5,12.8333 110.5,12.5C 115.923,12.0094 121.257,11.6761 126.5,11.5C 126.05,17.6525 127.384,17.9858 130.5,12.5 Z M 135.5,15.5 C 138.137,17.1538 137.803,17.6538 134.5,17C 135.056,16.6174 135.389,16.1174 135.5,15.5 Z M 118.5,16.5 C 119.976,18.2296 119.642,19.5629 117.5,20.5C 116.081,19.9953 115.415,18.9953 115.5,17.5C 116.391,16.8902 117.391,16.5569 118.5,16.5 Z"/></g>
<g><path style="opacity:0.251" fill="#560b1d" d="M 130.5,12.5 C 127.384,17.9858 126.05,17.6525 126.5,11.5C 121.257,11.6761 115.923,12.0094 110.5,12.5C 110.611,11.8826 110.944,11.3826 111.5,11C 116.823,10.5006 122.156,10.334 127.5,10.5C 127.351,11.552 127.517,12.552 128,13.5C 128.671,12.7476 129.504,12.4142 130.5,12.5 Z"/></g>
<g><path style="opacity:0.09" fill="#2d1017" d="M 65.5,12.5 C 65.8333,12.5 66.1667,12.5 66.5,12.5C 66.5,15.5 66.5,18.5 66.5,21.5C 67.8333,21.5 69.1667,21.5 70.5,21.5C 69.0813,22.4511 67.4147,22.7845 65.5,22.5C 65.5,19.1667 65.5,15.8333 65.5,12.5 Z"/></g>
<g><path style="opacity:0.004" fill="#070b0c" d="M 10.5,12.5 C 9.16667,15.5 9.16667,18.5 10.5,21.5C 9.83333,21.8333 9.16667,22.1667 8.5,22.5C 8.5,19.5 8.5,16.5 8.5,13.5C 9.16667,13.1667 9.83333,12.8333 10.5,12.5 Z"/></g>
<g><path style="opacity:0.867" fill="#891630" d="M 78.5,10.5 C 80.2132,11.6354 80.8799,13.302 80.5,15.5C 80.5,16.8333 80.5,18.1667 80.5,19.5C 80.7373,20.791 80.404,21.791 79.5,22.5C 79.693,18.4338 79.3597,14.4338 78.5,10.5 Z"/></g>
<g><path style="opacity:1" fill="#6b6c9f" d="M 99.5,15.5 C 98.596,16.209 98.2627,17.209 98.5,18.5C 95.8333,17.1667 93.1667,17.1667 90.5,18.5C 90.7678,16.901 90.4345,15.5676 89.5,14.5C 89.7828,13.7109 90.2828,13.0442 91,12.5C 93.2248,16.4621 95.5582,16.4621 98,12.5C 99.0386,13.2438 99.5386,14.2438 99.5,15.5 Z"/></g>
<g><path style="opacity:1" fill="#915d92" d="M 89.5,14.5 C 90.4345,15.5676 90.7678,16.901 90.5,18.5C 89.596,19.209 89.2627,20.209 89.5,21.5C 91.4918,21.6715 93.1585,21.0049 94.5,19.5C 95.5237,20.8532 96.857,21.5198 98.5,21.5C 98.5,20.5 98.5,19.5 98.5,18.5C 98.2627,17.209 98.596,16.209 99.5,15.5C 100.468,17.6074 100.802,19.9407 100.5,22.5C 95.3861,22.3495 94.7194,23.3495 98.5,25.5C 97.5084,25.3284 96.8417,25.6618 96.5,26.5C 95.8501,26.8039 95.1835,27.1373 94.5,27.5C 90.0166,26.6004 89.6833,25.2671 93.5,23.5C 91.9936,22.2528 90.4936,22.2528 89,23.5C 88.2642,20.408 88.4309,17.408 89.5,14.5 Z"/></g>
<g><path style="opacity:1" fill="#bea9c4" d="M 98.5,18.5 C 98.5,19.5 98.5,20.5 98.5,21.5C 96.857,21.5198 95.5237,20.8532 94.5,19.5C 93.1585,21.0049 91.4918,21.6715 89.5,21.5C 89.2627,20.209 89.596,19.209 90.5,18.5C 93.1667,17.1667 95.8333,17.1667 98.5,18.5 Z"/></g>
<g><path style="opacity:0.353" fill="#621325" d="M 118.5,16.5 C 120.71,17.4551 121.043,18.9551 119.5,21C 115.499,22.1603 114.165,20.9936 115.5,17.5C 115.415,18.9953 116.081,19.9953 117.5,20.5C 119.642,19.5629 119.976,18.2296 118.5,16.5 Z"/></g>
<g><path style="opacity:0.949" fill="#3f7e90" d="M 32.5,13.5 C 31.6561,17.0991 31.3227,20.7657 31.5,24.5C 31.1667,24.5 30.8333,24.5 30.5,24.5C 30.1667,23.8333 29.8333,23.1667 29.5,22.5C 30.3171,20.0314 30.8171,17.3647 31,14.5C 31.3826,13.944 31.8826,13.6107 32.5,13.5 Z"/></g>
<g><path style="opacity:0.437" fill="#2b4b54" d="M 47.5,14.5 C 48.1174,14.6107 48.6174,14.944 49,15.5C 49.4955,17.4727 49.6621,19.4727 49.5,21.5C 47.901,21.2322 46.5676,21.5655 45.5,22.5C 44.5,22.5 43.5,22.5 42.5,22.5C 41.5,21.1667 40.5,21.1667 39.5,22.5C 38.6236,22.6309 37.9569,22.2975 37.5,21.5C 41.1073,20.5108 44.774,20.1774 48.5,20.5C 48.4828,18.4352 48.1495,16.4352 47.5,14.5 Z"/></g>
<g><path style="opacity:0.435" fill="#67192e" d="M 144.5,15.5 C 145.461,17.2646 145.795,19.2646 145.5,21.5C 143.901,21.2322 142.568,21.5655 141.5,22.5C 140.5,22.5 139.5,22.5 138.5,22.5C 137.5,21.1667 136.5,21.1667 135.5,22.5C 134.957,22.44 134.624,22.1067 134.5,21.5C 137.768,20.513 141.102,20.1796 144.5,20.5C 144.5,18.8333 144.5,17.1667 144.5,15.5 Z"/></g>
<g><path style="opacity:0.251" fill="#3b0916" d="M 128.5,24.5 C 127.833,25.5 127.167,26.5 126.5,27.5C 126.338,25.4727 126.505,23.4727 127,21.5C 127.513,22.5266 128.013,23.5266 128.5,24.5 Z"/></g>
<g><path style="opacity:0.655" fill="#274751" d="M 31.5,24.5 C 33.4044,24.7376 34.7377,25.7376 35.5,27.5C 33.5956,27.2624 32.2623,26.2624 31.5,24.5 Z"/></g>
<g><path style="opacity:1" fill="#6975a6" d="M 101.5,26.5 C 100.791,27.404 99.791,27.7373 98.5,27.5C 97.8333,27.1667 97.1667,26.8333 96.5,26.5C 96.8417,25.6618 97.5084,25.3284 98.5,25.5C 98.4346,25.9382 98.6012,26.2716 99,26.5C 99.7051,24.0144 100.538,24.0144 101.5,26.5 Z"/></g>
<g><path style="opacity:0.145" fill="#311018" d="M 109.5,24.5 C 111.027,24.427 112.027,25.0937 112.5,26.5C 112.5,26.8333 112.5,27.1667 112.5,27.5C 111.833,27.5 111.167,27.5 110.5,27.5C 110.443,26.391 110.11,25.391 109.5,24.5 Z"/></g>
<g><path style="opacity:0.118" fill="#1e0f12" d="M 113.5,26.5 C 114.833,26.5 116.167,26.5 117.5,26.5C 117.5,27.1667 117.833,27.5 118.5,27.5C 118.158,28.3382 117.492,28.6716 116.5,28.5C 116.167,27.1667 115.833,27.1667 115.5,28.5C 114.209,28.7373 113.209,28.404 112.5,27.5C 113.167,27.5 113.5,27.1667 113.5,26.5 Z"/></g>
<g><path style="opacity:0.342" fill="#1a1f21" d="M 17.5,27.5 C 20.1667,27.5 22.8333,27.5 25.5,27.5C 23.8516,29.4559 23.1849,31.7892 23.5,34.5C 22.1667,34.5 20.8333,34.5 19.5,34.5C 19.8151,31.7892 19.1484,29.4559 17.5,27.5 Z"/></g>
</svg>
